<svg width="295" height="295" viewBox="0 0 295 295" fill="none" xmlns="http://www.w3.org/2000/svg">
<rect width="295" height="295" fill="white"/>
<path transform="translate(20.65 63.22) scale(0.86)" d="M0.5 112H98.5C145.26 112 182.22 148.96 182.5 196H210.5C210.22 148.96 247.18 112 294.5 112V84C247.46 84 210.5 47.04 210.5 0H182.5C182.5 47.04 145.54 84 98.5 84H0.5V112ZM196.5 142.24C186.42 124.04 170.46 108.08 152.26 98C170.46 87.92 186.42 71.96 196.5 53.76C206.58 71.96 222.54 87.92 240.74 98C222.54 108.08 206.58 124.04 196.5 142.24Z" fill="black"/>
</svg>
